<svg width="14" height="14" viewBox="0 0 14 14" fill="none" xmlns="http://www.w3.org/2000/svg">
<path d="M2.31715 11.9428C1.21225 10.8532 0.693904 9.19604 1.00544 7.67304C1.31361 5.9626 2.64209 4.47165 4.31974 4.00175C5.14105 4.83498 5.97279 5.65703 6.79783 6.4858C6.96776 6.64976 7.12352 6.82826 7.30686 6.97769C6.72218 6.98365 6.13638 6.96204 5.55245 6.98477C4.74567 7.03582 4.06224 7.79676 4.10733 8.60577C4.09988 9.42224 4.83213 10.1601 5.64897 10.1552C7.25581 10.159 8.86228 10.1549 10.4684 10.1578C11.5241 11.2147 12.5779 12.2737 13.6392 13.3253C13.4753 13.3566 13.3087 13.3481 13.1432 13.3466C10.6655 13.3469 8.18854 13.3466 5.71157 13.3469C4.45538 13.3503 3.20031 12.8405 2.31715 11.9428Z" fill="#7C4EE4"/>
<path d="M4.02463 3.72007C2.9801 2.68262 1.9516 1.62804 0.894409 0.602891C3.36728 0.612579 5.83978 0.604381 8.31265 0.607362C8.72778 0.612952 9.14701 0.583886 9.55729 0.661769C10.6089 0.806728 11.605 1.32135 12.3327 2.09347C13.1418 2.93229 13.615 4.0793 13.6519 5.24269C13.6795 6.20151 13.4082 7.16778 12.8891 7.97418C12.2783 8.91213 11.3344 9.65369 10.2485 9.95032C9.43767 9.1264 8.61412 8.31403 7.79803 7.49459C7.6337 7.34217 7.49582 7.15958 7.30726 7.03362C7.3393 7.00717 7.37396 6.98481 7.41197 6.96692C7.93032 6.97773 8.44979 6.97624 8.96851 6.96953C9.77342 6.94717 10.48 6.21157 10.4639 5.40554C10.4874 4.7508 10.0443 4.12178 9.43357 3.89707C9.20067 3.79646 8.94354 3.79497 8.69424 3.7972C7.1895 3.79869 5.68513 3.79683 4.18077 3.79832C4.11779 3.79869 4.06562 3.77261 4.02463 3.72007Z" fill="#7C4EE4"/>
</svg>
