<svg width="8" height="7" viewBox="0 0 8 7" fill="none" xmlns="http://www.w3.org/2000/svg">
<g clip-path="url(#clip0_410_151)">
<path d="M3.66036 2.07983L2.76998 1.05206C2.66733 0.933621 2.47915 0.934147 2.35992 1.05364L1.62771 1.78716C1.40979 2.00535 1.34741 2.32934 1.47348 2.58911C2.22664 4.14853 3.4843 5.40795 5.04266 6.16329C5.30217 6.28936 5.6259 6.22699 5.84382 6.0088L6.58287 5.26843C6.70263 5.14868 6.70289 4.95944 6.5834 4.8568L5.55168 3.97115C5.44377 3.8785 5.27611 3.89061 5.16794 3.99905L4.80894 4.35857C4.79056 4.37783 4.76637 4.39053 4.74008 4.39471C4.71379 4.3989 4.68685 4.39434 4.6634 4.38173C4.07659 4.04381 3.58982 3.55641 3.25267 2.96917C3.24005 2.94568 3.23548 2.91869 3.23966 2.89235C3.24384 2.86602 3.25655 2.84178 3.27583 2.82336L3.63378 2.46515C3.74222 2.35619 3.75406 2.18774 3.66036 2.07957V2.07983Z" stroke="white" stroke-width="0.526389" stroke-linecap="round" stroke-linejoin="round"/>
</g>
<defs>
<clipPath id="clip0_410_151">
<rect width="6.31667" height="6.31667" fill="white" transform="translate(0.882568 0.437469)"/>
</clipPath>
</defs>
</svg>
