<svg width="7" height="7" viewBox="0 0 7 7" fill="none" xmlns="http://www.w3.org/2000/svg">
<g clip-path="url(#clip0_410_144)">
<path d="M0.710449 2.01668C0.710449 1.87708 0.765908 1.74319 0.864625 1.64447C0.963342 1.54575 1.09723 1.4903 1.23684 1.4903H5.44795C5.58756 1.4903 5.72145 1.54575 5.82016 1.64447C5.91888 1.74319 5.97434 1.87708 5.97434 2.01668V5.17502C5.97434 5.31462 5.91888 5.44851 5.82016 5.54723C5.72145 5.64595 5.58756 5.70141 5.44795 5.70141H1.23684C1.09723 5.70141 0.963342 5.64595 0.864625 5.54723C0.765908 5.44851 0.710449 5.31462 0.710449 5.17502V2.01668Z" stroke="white" stroke-width="0.526389" stroke-linecap="round" stroke-linejoin="round"/>
<path d="M0.710449 2.54303L2.68467 4.12246C2.87135 4.27183 3.10331 4.3532 3.34239 4.3532C3.58147 4.3532 3.81344 4.27183 4.00012 4.12246L5.97434 2.54303" stroke="white" stroke-width="0.526389" stroke-linecap="round" stroke-linejoin="round"/>
</g>
<defs>
<clipPath id="clip0_410_144">
<rect width="6.31667" height="6.31667" fill="white" transform="translate(0.184082 0.437469)"/>
</clipPath>
</defs>
</svg>
