<svg width="7" height="7" viewBox="0 0 7 7" fill="none" xmlns="http://www.w3.org/2000/svg">
<g clip-path="url(#clip0_410_138)">
<path d="M6.27561 5.70139V3.64163C6.27562 3.49833 6.24638 3.35653 6.18968 3.22492C6.13297 3.09332 6.04999 2.97467 5.94582 2.87626L4.00529 1.04232C3.90756 0.949922 3.77816 0.898438 3.64366 0.898438C3.50916 0.898437 3.37977 0.949922 3.28203 1.04232L1.3415 2.87626C1.23734 2.97467 1.15436 3.09332 1.09765 3.22492C1.04094 3.35653 1.0117 3.49833 1.01172 3.64163V5.70139C1.01172 5.841 1.06718 5.97489 1.16589 6.0736C1.26461 6.17232 1.3985 6.22778 1.53811 6.22778H5.74922C5.88883 6.22778 6.02271 6.17232 6.12143 6.0736C6.22015 5.97489 6.27561 5.841 6.27561 5.70139Z" stroke="white" stroke-width="0.526389" stroke-linecap="round" stroke-linejoin="round"/>
</g>
<defs>
<clipPath id="clip0_410_138">
<rect width="6.31667" height="6.31667" fill="white" transform="translate(0.485352 0.437469)"/>
</clipPath>
</defs>
</svg>
